<?xml version="1.0" encoding="utf-8"?>
<!-- Generator: Adobe Illustrator 21.1.0, SVG Export Plug-In . SVG Version: 6.00 Build 0)  -->
<svg version="1.1" id="Envelop" xmlns="http://www.w3.org/2000/svg" xmlns:xlink="http://www.w3.org/1999/xlink" x="0px" y="0px"
	 viewBox="0 0 512 512" style="enable-background:new 0 0 512 512;" xml:space="preserve">
<style type="text/css">
	.st0{fill:#F78422;}
	.st1{fill:#CE6211;}
	.st2{fill:#FFFFFF;}
</style>
<path d="M461.7,242.2c0-0.1,0-0.2,0-0.2c0-0.2-0.1-0.4-0.1-0.6c0-0.1,0-0.1-0.1-0.2c-0.1-0.3-0.2-0.5-0.3-0.8c0-0.1,0-0.1-0.1-0.2
	c-0.1-0.2-0.2-0.4-0.3-0.6c0-0.1-0.1-0.1-0.1-0.2c-0.1-0.2-0.2-0.4-0.4-0.6c0,0-0.1-0.1-0.1-0.1c-0.2-0.2-0.3-0.4-0.5-0.6
	l-42.3-42.7v-51c0-0.2,0-0.4,0-0.6c0,0,0-0.1,0-0.1c0-0.3-0.1-0.6-0.2-0.9c0-0.1,0-0.1-0.1-0.2c-0.1-0.2-0.1-0.5-0.2-0.7
	c0-0.1,0-0.1-0.1-0.2c-0.1-0.3-0.3-0.6-0.4-0.8c0-0.1-0.1-0.1-0.1-0.2c-0.1-0.2-0.3-0.4-0.5-0.6c0-0.1-0.1-0.1-0.1-0.2
	c-0.2-0.2-0.4-0.5-0.6-0.7l-71.8-63.9c-1.3-1.1-2.9-1.8-4.6-1.8h-41.8l-20.5-20.7c-5.4-5.4-12.6-8.4-20.3-8.4s-14.9,3-20.3,8.4
	l-20.5,20.7H101.5c-3.9,0-7,3.1-7,7v114.9l-42.3,42.7c-0.2,0.2-0.3,0.4-0.5,0.6c0,0-0.1,0.1-0.1,0.1c-0.1,0.2-0.3,0.4-0.4,0.6
	c0,0.1-0.1,0.1-0.1,0.2c-0.1,0.2-0.2,0.4-0.3,0.6c0,0.1,0,0.1-0.1,0.2c-0.1,0.3-0.2,0.5-0.3,0.8c0,0.1,0,0.1-0.1,0.2
	c-0.1,0.2-0.1,0.4-0.1,0.6c0,0.1,0,0.2,0,0.2c0,0.3-0.1,0.6-0.1,0.8v217.6c0,0,0,0.1,0,0.1c0,0.1,0,0.1,0,0.2c0,0.3,0,0.6,0.1,0.8
	c0,0,0,0.1,0,0.1c0.1,0.3,0.2,0.6,0.3,0.9c0,0,0,0,0,0.1c0,0,0,0.1,0,0.1c0.2,0.6,0.5,1.2,0.9,1.7c0,0.1,0.1,0.1,0.1,0.2
	c0.2,0.2,0.4,0.5,0.6,0.7c0,0,0.1,0.1,0.1,0.1c0.2,0.2,0.4,0.4,0.6,0.5c0,0,0.1,0.1,0.1,0.1c0.3,0.2,0.5,0.3,0.8,0.5
	c0,0,0.1,0,0.2,0.1c0.3,0.1,0.6,0.3,0.9,0.4c0,0,0,0,0,0c0.3,0.1,0.6,0.2,0.9,0.2c0.1,0,0.1,0,0.2,0c0.3,0,0.6,0.1,1,0.1h397.6
	c0.3,0,0.7,0,1-0.1c0.1,0,0.1,0,0.2,0c0.3-0.1,0.6-0.1,0.9-0.2c0,0,0,0,0,0c0.3-0.1,0.6-0.2,0.9-0.4c0,0,0.1,0,0.1-0.1
	c0.3-0.1,0.6-0.3,0.8-0.5c0,0,0.1-0.1,0.1-0.1c0.2-0.2,0.4-0.3,0.7-0.5c0,0,0.1-0.1,0.1-0.1c0.2-0.2,0.4-0.4,0.6-0.7
	c0-0.1,0.1-0.1,0.1-0.2c0.4-0.5,0.7-1.1,0.9-1.7c0,0,0-0.1,0-0.1c0,0,0,0,0-0.1c0.1-0.3,0.2-0.6,0.3-1c0,0,0-0.1,0-0.1
	c0-0.3,0.1-0.6,0.1-0.8c0-0.1,0-0.1,0-0.2c0,0,0-0.1,0-0.1V243.1C461.8,242.8,461.8,242.5,461.7,242.2z"/>
<path class="st0" d="M108.5,87.5h223.1l0,56.9c0,3.9,3.1,7,7,7h64.8V268l-96.9,62.8l-29.8-24.2c-0.4-0.3-0.8-0.6-1.3-0.8
	c-6.8-3.4-12.8-5-18.8-5c-5.9,0-12,1.5-19.8,4.8c-0.6,0.3-1.2,0.6-1.7,1l-29.8,24.2L108.5,268L108.5,87.5L108.5,87.5z"/>
<polygon class="st1" points="391.8,137.4 345.6,137.4 345.6,97 "/>
<g>
	<path class="st2" d="M294.8,164.3c-29.8-29.8-69.4-46.2-111.6-46.2v31c33.9,0,65.7,13.2,89.6,37.1c23.9,23.9,37.1,55.8,37.1,89.6
		h31C341,233.7,324.6,194.1,294.8,164.3z"/>
	<path class="st2" d="M182.9,170.6v31c40.9,0,74.2,33.3,74.2,74.2h31C288.2,217.8,241,170.6,182.9,170.6z"/>
	<circle class="st2" cx="205" cy="254.5" r="22.2"/>
</g>
<polygon class="st2" points="64.2,255.9 194.1,340.1 64.2,445.9 "/>
<path class="st2" d="M76.9,453.6l166.4-135.6c5.6-2.3,9.7-3.3,13.4-3.3c3.6,0,7.3,1,11.8,3.2l166.6,135.7H76.9z"/>
<polygon class="st2" points="447.8,445.9 317.9,340.1 447.8,255.9 447.8,445.9 "/>
</svg>
