<?xml version="1.0" standalone="no"?>
<!DOCTYPE svg PUBLIC "-//W3C//DTD SVG 20010904//EN"
 "http://www.w3.org/TR/2001/REC-SVG-20010904/DTD/svg10.dtd">
<svg version="1.0" xmlns="http://www.w3.org/2000/svg"
 width="700.000000pt" height="700.000000pt" viewBox="0 0 700.000000 700.000000"
 preserveAspectRatio="xMidYMid meet">
<metadata>
Created by potrace 1.11, written by Peter Selinger 2001-2013
</metadata>
<g transform="translate(0.000000,700.000000) scale(0.100000,-0.100000)"
fill="#000000" stroke="none">
<path d="M3373 6371 c-79 -29 -125 -66 -285 -228 l-146 -148 -787 0 c-734 0
-790 -1 -817 -17 -15 -10 -33 -29 -38 -42 -5 -15 -9 -353 -9 -816 1 -436 -1
-793 -3 -795 -1 -2 -137 -138 -301 -303 -210 -212 -297 -307 -298 -323 -1 -13
-2 -697 -4 -1519 -2 -1601 -4 -1520 44 -1557 21 -16 5502 -19 5531 -3 47 25
45 -31 46 1570 1 1007 -2 1522 -9 1535 -5 11 -139 150 -296 308 -157 159 -288
290 -290 293 -3 2 -5 165 -6 362 -1 196 -3 362 -3 369 -2 14 -47 59 -142 143
-40 36 -78 70 -84 75 -67 60 -177 156 -200 176 -16 13 -40 36 -55 50 -14 14
-64 59 -111 100 -46 41 -90 79 -96 84 -17 16 -155 138 -174 155 -9 8 -47 42
-84 75 -37 33 -80 65 -95 70 -17 6 -146 10 -315 10 l-286 0 -163 163 c-199
200 -236 223 -380 228 -72 3 -103 0 -144 -15z"/>
</g>
</svg>
