<?xml version="1.0" standalone="no"?>
<!DOCTYPE svg PUBLIC "-//W3C//DTD SVG 20010904//EN"
 "http://www.w3.org/TR/2001/REC-SVG-20010904/DTD/svg10.dtd">
<svg version="1.0" xmlns="http://www.w3.org/2000/svg"
 width="2134.000000pt" height="2134.000000pt" viewBox="0 0 2134.000000 2134.000000"
 preserveAspectRatio="xMidYMid meet">
<metadata>
Created by potrace 1.14, written by Peter Selinger 2001-2017
</metadata>
<g transform="translate(0.000000,2134.000000) scale(0.100000,-0.100000)"
fill="#000000" stroke="none">
<path d="M8923 20318 c-38 -35 -109 -99 -158 -143 -427 -383 -687 -673 -946
-1055 -64 -94 -199 -306 -199 -313 0 -2 -26 -50 -58 -108 -200 -358 -387 -832
-477 -1207 -54 -221 -103 -470 -119 -602 -33 -271 -44 -440 -45 -681 l-1 -126
-27 3 c-170 20 -528 26 -688 11 -573 -53 -1102 -248 -1556 -574 -105 -75 -111
-80 -228 -183 -78 -68 -193 -183 -271 -270 -63 -71 -228 -298 -283 -389 -49
-82 -154 -287 -177 -346 -5 -11 -17 -40 -28 -65 -54 -124 -137 -437 -157 -590
-3 -30 -8 -66 -10 -80 -24 -157 -18 -509 10 -670 3 -14 7 -40 10 -58 3 -18 12
-65 21 -105 8 -39 17 -80 19 -90 5 -24 8 -34 40 -142 50 -167 178 -454 262
-587 12 -21 23 -42 23 -47 0 -9 -1777 -1787 -1801 -1802 -7 -4 -44 -7 -82 -7
-38 0 -72 -4 -76 -10 -3 -6 -6 -42 -5 -79 l2 -69 -147 -147 c-160 -159 -209
-233 -231 -348 -12 -61 -17 -7947 -5 -8034 27 -197 200 -379 401 -424 47 -11
1659 -13 8489 -13 7754 0 8436 1 8494 16 196 50 349 211 384 403 10 54 13
1033 12 4723 -1 2560 -5 4707 -9 4770 -11 196 -26 375 -41 515 -16 142 -24
209 -30 245 -2 14 -9 61 -15 105 -27 186 -93 535 -130 685 -11 41 -21 86 -24
100 -23 120 -139 523 -208 725 -47 137 -136 382 -152 418 -7 18 -21 52 -31 77
-9 25 -23 59 -30 75 -7 17 -43 98 -79 181 -362 835 -877 1633 -1511 2343 -27
31 -65 74 -85 96 -64 73 -464 469 -539 535 -41 36 -81 72 -90 81 -20 20 -224
194 -275 234 -20 17 -49 40 -64 53 -31 27 -357 273 -417 315 -105 74 -365 247
-370 247 -4 0 -21 11 -38 24 -44 33 -313 192 -422 251 -49 26 -94 51 -100 55
-14 11 -392 200 -490 245 -386 178 -861 355 -1245 464 -80 23 -167 48 -195 56
-50 15 -319 80 -365 89 -14 2 -77 16 -140 29 -63 14 -133 28 -155 31 -22 4
-47 8 -55 11 -8 2 -33 6 -55 10 -22 3 -69 10 -105 16 -36 5 -76 12 -90 14 -41
6 -114 17 -130 20 -8 1 -42 6 -75 9 -33 4 -73 9 -90 11 -56 7 -150 17 -190 20
-91 7 -202 17 -235 20 -138 16 -655 24 -775 13 -169 -16 -361 -67 -516 -136
l-65 -30 -49 117 c-41 99 -176 383 -212 446 -7 11 -38 65 -69 120 -53 94 -87
149 -195 319 -24 39 -48 78 -54 87 -40 70 -99 159 -105 159 -5 0 -39 -28 -77
-62z"/>
</g>
</svg>
